PathFileType	4	(X/Y/Z)	Patient5_TMGait_0pt45_1_left_14.trc.trc
DataRate	CameraRate	NumFrames	NumMarkers	Units	OrigDataRate	OrigDataStartFrame	OrigNumFrames
62.500000000000	62.500000000000	7	32	mm	62.500000000000	124	       141
Frame#	Time	R.ASIS			L.ASIS			Chest			R.Shoulder			Neck			L.Shoulder			L.Elbow			L.Wrist			R.Elbow			R.Wrist			L.Thigh.Superior			L.Thigh.Lateral			L.Thigh.Inferior			L.Patella			L.Shank.Superior			L.Shank.Lateral			L.Shank.Inferior			L.Heel			L.Midfoot.Lateral			L.Midfoot.Superior			L.Toe			R.Thigh.Superior			R.Thigh.Lateral			R.Thigh.Inferior			R.Patella			R.Shank.Superior			R.Shank.Lateral			R.Shank.Inferior			R.Heel			R.Midfoot.Lateral			R.Midfoot.Superior			R.Toe			
		X1	Y1	Z1	X2	Y2	Z2	X3	Y3	Z3	X4	Y4	Z4	X5	Y5	Z5	X6	Y6	Z6	X7	Y7	Z7	X8	Y8	Z8	X9	Y9	Z9	X10	Y10	Z10	X11	Y11	Z11	X12	Y12	Z12	X13	Y13	Z13	X14	Y14	Z14	X15	Y15	Z15	X16	Y16	Z16	X17	Y17	Z17	X18	Y18	Z18	X19	Y19	Z19	X20	Y20	Z20	X21	Y21	Z21	X22	Y22	Z22	X23	Y23	Z23	X24	Y24	Z24	X25	Y25	Z25	X26	Y26	Z26	X27	Y27	Z27	X28	Y28	Z28	X29	Y29	Z29	X30	Y30	Z30	X31	Y31	Z31	X32	Y32	Z32	

124	23.928000000000	1058.135485599212	955.293870471406	607.936544061104	1056.559103813055	945.247245936243	367.342719126914	1167.288748167338	1408.589752283772	496.669996876023	1081.871245365205	1474.528687020447	665.230610943254	1045.808720851571	1538.499439454665	485.550771945523	1104.930122068215	1484.162912397376	302.501602245057	1005.244768470174	1175.578738801814	168.862924992833	1091.942367233195	898.809880532520	194.262523653491	1021.104830547063	1162.342240626075	828.798231864639	1223.100340568865	972.047240051489	742.930284697037	1115.389042835424	756.219038835729	342.349486552438	1070.189191358036	669.005670020934	300.105233605798	1161.692115302446	640.636494868180	364.112816964542	1208.207300648181	534.212792293282	364.780070655171	1192.791977670040	422.516974030257	384.169063658473	1141.018436832246	338.832954562576	311.951091726795	1201.136287329902	296.062119438269	392.346802169498	1140.979143054368	44.807519340147	395.082821405496	1225.533482992964	36.024125775147	326.185958748363	1311.624883378130	116.098382211889	359.972620944591	1421.794018560439	98.108647412694	352.544526221003	1024.394754514231	719.697145797440	616.408974426518	919.112031839836	660.302080244923	665.344204493374	985.431791295365	593.317504116377	591.554696352981	965.901491507845	499.642625050190	616.020462364098	911.819576955935	414.522367105966	575.573884131429	832.348771160479	354.876439722838	653.847415339744	881.802824972435	278.884945088679	573.391162338211	739.201500981351	54.436705154840	534.357921461290	816.553876923542	25.140135740628	608.341286780416	922.592285473293	87.372126263542	586.160272726294	1026.204332152367	44.559408799592	587.012084998786	
125	23.944000000000	1060.690182141735	955.243935570910	606.572946371059	1063.386809552420	943.989484560706	365.881588748569	1168.046943050338	1409.191791395204	494.262067386159	1079.381607468574	1474.794298275329	661.327917219469	1046.243863949828	1538.152001986651	481.011086259332	1107.735558291763	1483.676280842866	298.857337847481	1011.914662439698	1174.252833271103	164.465744719052	1098.515971887802	897.683378436299	192.420972829745	1019.651841290969	1161.867209795022	824.283034025994	1222.822528242616	972.187751877831	739.960969507849	1121.466242706540	752.823829692518	342.466347503624	1074.638757204546	665.730640406650	301.029536940538	1164.804031493561	636.219280906011	366.337865710441	1208.491663852744	530.371942057236	369.389411892806	1193.235723366058	418.911497930073	387.752788178955	1143.867887450178	335.275985324939	313.618292950209	1201.714561150074	292.447245531633	394.895575937261	1141.314020680858	44.578733129205	395.553477603134	1226.611673371191	33.545349812756	328.045162249791	1313.457278234833	111.459638986937	364.141034552130	1423.329219576270	91.197580014282	358.640999248960	1026.632309079335	719.371862304611	614.698095377693	920.591339467230	660.516953014884	663.055412432805	987.262709773348	592.865877860730	590.286299206323	966.497928913896	498.873477235144	614.927829478728	911.213536570425	413.683236267651	574.343659075807	829.941336225618	355.833367713478	652.165494947904	878.633112243462	278.636965567178	572.661484996105	732.238582727624	55.207685752379	534.213491744915	809.501391062627	25.461000971091	608.158138782347	915.773543896825	87.462395139947	586.299514929932	1019.098602780617	44.369247545168	587.059828521989	
126	23.960000000000	1063.377963346160	955.558619385319	604.929331214976	1070.173329493480	943.235983177423	364.174463747546	1168.886249315491	1410.327415806424	491.662499818262	1076.716376550116	1475.558463463409	657.301925469836	1046.723848269622	1538.286134362469	476.194801116825	1110.645988701241	1483.622027803375	295.017039789981	1018.925464129625	1173.338925881995	159.865507547744	1105.519401256717	897.019063893476	190.438674135525	1017.193198717334	1161.829108052347	819.144744902526	1222.239910919096	973.292518765740	737.161742671680	1128.142264059067	750.985470174734	343.065786098941	1080.472224313843	664.093275597876	301.595288407536	1168.908411757081	633.360964915304	368.456541666569	1209.812132333532	527.314888321572	373.276349343669	1193.700752891938	415.942774575854	390.459872756328	1146.297932492582	332.856639505450	314.129343380710	1200.914955433586	289.363846653562	396.485362454792	1137.638718950725	45.269393503948	395.407986827601	1223.645473853588	31.338476375523	329.313076495187	1312.055829773084	106.285097004391	367.646750369066	1421.411903720169	82.597364033420	364.217182569705	1029.349867092465	719.412880240766	612.927523856438	922.697784071986	660.995373795824	660.766628211551	989.831504401964	592.709683581133	589.019656679808	967.939342208226	498.375249295279	613.900684902124	911.329601787774	412.972361279384	573.220098194545	828.204947254321	357.055144844519	650.548173383422	875.951799308781	278.612885636012	571.977278886376	725.458978470029	56.642072380622	534.114059612905	802.535704864247	26.110717981902	607.986141621055	909.213497426858	87.575507621899	586.513984315668	1012.041835254400	44.119719069530	587.104680998820	
127	23.976000000000	1066.043643726238	956.372785791291	602.975522674621	1076.727230061142	943.108144917625	362.180050306555	1169.893969471562	1411.990907379232	488.896941402369	1074.138201068410	1476.900283033080	653.195457890879	1047.378054246172	1538.985552249595	471.173443192245	1113.778524137220	1484.036319268089	291.050371328630	1026.159196089055	1172.919785281395	155.198306948181	1112.930949916232	896.915406066259	188.230712749008	1013.720804704477	1162.330955803220	813.325135393926	1221.264995248824	975.340829250810	734.593639311323	1135.006860691676	750.688370859201	343.741982454814	1087.186818423055	664.043771498216	301.535991621730	1173.669363851817	632.049606685885	369.989156030280	1211.925599915496	525.183248692848	375.882180200817	1194.253370645795	413.767209269939	391.916477359268	1148.255124521432	331.515814506423	313.433398628694	1199.247624915177	286.995271674338	396.930971690661	1131.379049586724	46.401074819339	394.804844828622	1217.958575770414	29.487247922129	329.932260204864	1308.366414497820	101.241520697883	370.142397424637	1417.092570329455	73.647735306692	368.641649754689	1032.431735524301	719.949500160710	611.136953696286	925.317078283752	661.840965578030	658.524473301143	993.074063132903	592.982721175781	587.825551688436	970.242963293948	498.270013552237	613.045019702933	912.163589805661	412.492104725754	572.296219054791	827.154991544703	358.623566758849	649.085620850927	873.808856275201	278.905662929202	571.408063433875	718.935973654298	58.973001633616	534.084285392472	795.677782996186	27.232348025163	607.845602271073	902.987938873479	87.722103764672	586.833860529210	1005.036731606020	43.814631131249	587.136866741499	
128	23.992000000000	1068.554015785346	957.795361518442	600.681686648477	1082.920767805463	943.658516968916	359.885650571429	1171.107219821583	1414.149756550884	486.011295781269	1071.848403362446	1478.855487663610	649.039221492879	1048.286835828820	1540.290228872590	466.028812918219	1117.215039434210	1484.938484215175	287.036645227905	1033.517601770791	1173.052509808175	150.581067559907	1120.720070933982	897.439184045702	185.749003222704	1009.323159876602	1163.439458733325	806.832215374618	1219.836596379223	978.237056660575	732.267984943861	1141.655012806038	751.629944265267	343.965271170893	1094.064277103414	665.245799902218	300.687577763603	1178.625676640515	632.003500155826	370.506246342030	1214.424506642132	523.921264456567	376.863707165243	1194.799151013944	412.375499865770	391.977419620958	1149.515529585773	331.049887725039	311.708043432864	1197.049470902547	285.391258095509	396.259119548226	1123.762072611522	47.589656762716	393.932552879771	1210.723229513398	28.057317378837	329.961521914108	1303.183226105768	96.892243335743	371.532310712446	1411.269157850020	65.526692181597	371.624122106325	1035.778302328855	721.094290484404	609.406503286095	928.347686560228	663.132615268321	656.380193407840	996.943280378555	593.795272539271	586.799245277609	973.436110719921	498.647841240834	612.491327094696	913.716362058689	412.330464136863	571.671682234251	826.811294094297	360.604779076321	647.879793141971	872.258012445667	279.596179706282	571.033633222954	712.746863600216	62.404772092738	534.152337645875	788.955245415510	28.963418751077	607.755680240908	897.163991352293	87.922122988997	587.285707999668	998.090476857474	43.468552984688	587.146201541183	
129	24.008000000000	1070.813742359147	959.877322357033	598.018061988254	1088.683653618004	944.857229326287	357.321188390832	1172.506901863099	1416.747214826353	483.067582640454	1069.939435609135	1481.403995837787	644.846257124781	1049.472582562506	1542.184352156364	460.838572601570	1120.986347053953	1486.323166397675	283.052969619702	1040.930457964077	1173.755697193232	146.094143258038	1128.848352711491	898.613183448893	182.993421675428	1004.178161553346	1165.171625554670	799.757132117320	1217.934539955161	981.834205277881	730.136759564140	1147.728206171883	753.295266191738	343.237673154262	1100.313036164700	667.177112680582	299.012116524375	1183.252121898691	632.759621688528	369.748830297345	1216.807630591418	523.328877847647	376.182453727992	1195.109959265554	411.635193417097	390.749950252515	1149.793015634343	331.175796602048	309.287628982738	1194.469395064787	284.478028942419	394.679799443536	1115.687976644508	48.587282672122	392.961278345742	1202.841341311234	27.058699496211	329.547334390229	1297.109004338405	93.577216121540	371.949670227131	1404.629253403580	59.014257129216	373.224437018715	1039.327638654714	722.913786741289	607.842767851421	931.728945062527	664.899326972010	654.394507478513	1001.427623869146	595.203715195058	586.058608164593	977.559588280828	499.543075300103	612.382531924864	916.006767010801	412.544940737592	571.443638169380	827.211692619620	363.032665259498	647.037914764894	871.350356233382	280.742060390092	570.931348476418	706.969841218628	67.085158039829	534.346744191969	782.405102575068	31.418155282680	607.729359010085	891.791963659054	88.212328345560	587.887398960829	991.219824767962	43.104021599249	587.125780633394	
130	24.024000000000	1072.772643607451	962.592487241967	594.964998585580	1093.985391901788	946.598474062811	354.560520353212	1174.025286144542	1419.704259310332	480.133113996188	1068.377646799131	1484.467213194256	640.609322707645	1050.904566423655	1544.594243660683	455.662097686407	1125.072504152660	1488.152833330081	279.162891368952	1048.359924168448	1175.002170946802	141.771177583880	1137.271974027450	900.409859056535	180.012114066429	998.528184772310	1167.489410627923	792.269600188082	1215.584280835062	985.958976568909	728.100104267210	1152.943588269994	755.108048536202	341.262898559106	1105.254453593248	669.290450308850	296.588127893474	1187.050349687541	633.813468442230	367.702974334042	1218.575931833633	523.143790792828	374.092020143905	1194.888800591851	411.354434281267	388.534581622443	1148.857584323717	331.608317052180	306.548090705614	1191.506186648976	284.101497239127	392.505508834125	1107.705196677724	49.283742071168	392.014685083707	1194.903704243512	26.442726880811	328.871631880144	1290.558507444699	91.384830601506	371.662714600436	1397.641411336605	54.419143688191	373.740235147684	1043.062409924859	725.404945928819	606.535738706595	935.456358992040	667.106337002048	652.638764887812	1006.556807897721	597.195117390589	585.733825254251	982.661102374987	500.925148805405	612.854088200967	919.076897372837	413.155112168201	571.694802106783	828.417734604767	365.901680296457	646.661472866039	871.131784825897	282.372311262228	571.162663657060	701.684985515260	73.094096836678	534.687211257451	776.074846360221	34.680644820676	607.767608165184	886.901313446464	88.655159199282	588.644828810111	984.455711173495	42.746174893230	587.078300475364	
